<svg width="40" height="40" viewBox="0 0 40 40" fill="none" xmlns="http://www.w3.org/2000/svg">
<rect x="1.5" y="1.5" width="37" height="37" rx="8.5" fill="#4DCC1D" stroke="white" stroke-width="3"/>
<path d="M14.712 13.672C15.0107 13.672 15.3093 13.6827 15.608 13.704C15.9067 13.7147 16.2 13.752 16.488 13.816C16.776 13.88 17.0533 13.976 17.32 14.104C17.5973 14.2213 17.8533 14.3867 18.088 14.6C18.4613 14.9413 18.728 15.352 18.888 15.832C19.048 16.3013 19.1227 16.7813 19.112 17.272C19.1013 17.9333 18.984 18.4933 18.76 18.952C18.5467 19.4107 18.2533 19.8 17.88 20.12C17.5387 20.3973 17.144 20.5947 16.696 20.712L19.208 25H16.616L14.328 20.936H12.52V25H10.2V13.672H14.712ZM14.728 18.984C15.016 18.984 15.288 18.9573 15.544 18.904C15.8 18.8507 16.0187 18.7653 16.2 18.648C16.392 18.52 16.5413 18.3547 16.648 18.152C16.7653 17.9387 16.8293 17.672 16.84 17.352C16.8507 17.0107 16.8027 16.7333 16.696 16.52C16.5893 16.3067 16.44 16.1413 16.248 16.024C16.0667 15.9067 15.848 15.832 15.592 15.8C15.3467 15.7573 15.0747 15.736 14.776 15.736H12.52V18.984H14.728ZM25.8754 25.128C24.99 25.128 24.2327 25 23.6034 24.744C22.9847 24.488 22.478 24.1253 22.0834 23.656C21.6994 23.1867 21.4167 22.6267 21.2354 21.976C21.0647 21.3147 20.9794 20.5733 20.9794 19.752V13.672H23.2994V19.912C23.2994 20.328 23.342 20.728 23.4274 21.112C23.5127 21.4853 23.6567 21.816 23.8594 22.104C24.062 22.392 24.3287 22.6267 24.6594 22.808C24.99 22.9787 25.406 23.064 25.9074 23.064C26.398 23.064 26.8087 22.9787 27.1394 22.808C27.47 22.6267 27.7314 22.392 27.9234 22.104C28.126 21.8053 28.2647 21.4693 28.3394 21.096C28.4247 20.712 28.4674 20.3173 28.4674 19.912V13.672H30.7714V19.752C30.7714 20.552 30.6807 21.288 30.4994 21.96C30.3287 22.6213 30.046 23.1867 29.6514 23.656C29.2674 24.1253 28.7607 24.488 28.1314 24.744C27.5127 25 26.7607 25.128 25.8754 25.128Z" fill="white"/>
</svg>
